<?xml version="1.0" encoding="utf-8"?>
<!-- Generator: Adobe Illustrator 21.1.0, SVG Export Plug-In . SVG Version: 6.00 Build 0)  -->
<svg version="1.1" id="Layer_1" xmlns="http://www.w3.org/2000/svg" xmlns:xlink="http://www.w3.org/1999/xlink" x="0px" y="0px"
	 viewBox="0 0 162.7 38.7" style="enable-background:new 0 0 162.7 38.7;" xml:space="preserve">
<style type="text/css">
	.st0{fill:#FFFFFF;}
	.st1{fill:#8C8C8C;}
	.st2{fill:#F0F1F2;}
	.st3{fill:none;stroke:#C6C4C4;stroke-width:0.4;stroke-miterlimit:10;}
	.st4{fill:#898989;}
	.st5{fill:#B5B5B5;}
	.st6{fill:#6D6D6D;}
	.st7{fill:none;stroke:#E5E5E5;stroke-width:0.4;stroke-miterlimit:10;}
	.st8{fill:#AAAAAA;}
	.st9{fill:none;stroke:#AFAFAF;stroke-width:0.25;stroke-miterlimit:10;}
	.st10{fill:#AFAFAF;}
	.st11{fill:none;stroke:#AFAFAF;stroke-width:0.25;stroke-miterlimit:10;stroke-dasharray:1.6988;}
	.st12{fill:#4D4D4D;}
	.st13{fill:#F15A24;}
	.st14{fill-rule:evenodd;clip-rule:evenodd;fill:none;stroke:#B2B2B2;stroke-width:0.3;stroke-miterlimit:10;}
	.st15{fill:none;stroke:#B2B2B2;stroke-width:0.3;stroke-miterlimit:10;}
	.st16{fill:#212121;}
	.st17{fill:#939598;}
	.st18{fill-rule:evenodd;clip-rule:evenodd;fill:none;stroke:#939598;stroke-width:0.3;stroke-miterlimit:10;}
	.st19{fill:none;stroke:#939598;stroke-width:0.3;stroke-miterlimit:10;}
	.st20{fill:#F5F5F5;}
	.st21{fill:#CCCCCC;}
	.st22{fill:#3F464B;}
	.st23{fill:none;stroke:#AFAFAF;stroke-width:0.25;stroke-miterlimit:10;stroke-dasharray:1.9677;}
	.st24{fill:#3F3F3F;}
	.st25{fill:#424242;}
	.st26{fill:none;stroke:#C6C6C6;stroke-width:0.25;stroke-miterlimit:10;}
	.st27{fill:#727272;}
	.st28{fill:#F9F9F9;stroke:#C1C1C1;stroke-width:0.2;stroke-miterlimit:10;}
	.st29{fill:#282828;}
	.st30{fill:#565656;}
	.st31{fill:#DBDBDB;}
	.st32{fill:none;stroke:#DBDBDB;stroke-width:1.6;stroke-miterlimit:10;}
	.st33{fill:none;stroke:#D8D8D8;stroke-width:0.2;stroke-miterlimit:10;}
	.st34{fill:none;stroke:#8C8C8C;stroke-width:0.25;stroke-miterlimit:10;}
</style>
<g>
	<path d="M0,0.6h8.9l9.8,15.8l9.8-15.8h8.9v37.4h-8.1V13.6l-10.5,16h-0.2L8.1,13.8v24.3H0V0.6z"/>
	<path d="M46.8,0.6H55v37.4h-8.2V0.6z"/>
	<path d="M64.4,0.6H72l17.5,23v-23h8.1v37.4h-7L72.5,14.3v23.8h-8.1V0.6z"/>
	<path d="M107,0.6h8.2v37.4H107V0.6z"/>
	<path d="M142.8,38.7c-2.9,0-5.5-0.5-8-1.5c-2.4-1-4.5-2.4-6.3-4.1c-1.8-1.7-3.1-3.8-4.1-6.1c-1-2.3-1.5-4.8-1.5-7.5v-0.1
		c0-2.7,0.5-5.2,1.5-7.5c1-2.3,2.4-4.4,4.1-6.1c1.8-1.8,3.9-3.2,6.3-4.2c2.4-1,5.1-1.5,8-1.5c2.9,0,5.5,0.5,8,1.5
		c2.4,1,4.5,2.4,6.3,4.1c1.8,1.7,3.1,3.8,4.1,6.1c1,2.3,1.5,4.8,1.5,7.5v0.1c0,2.7-0.5,5.2-1.5,7.5c-1,2.3-2.4,4.4-4.1,6.1
		c-1.8,1.8-3.9,3.2-6.3,4.2C148.3,38.2,145.6,38.7,142.8,38.7z M142.9,31.1c1.6,0,3.2-0.3,4.5-0.9c1.4-0.6,2.6-1.4,3.6-2.5
		c1-1.1,1.7-2.3,2.3-3.7c0.6-1.4,0.8-2.9,0.8-4.5v-0.1c0-1.6-0.3-3.1-0.8-4.5c-0.6-1.4-1.3-2.7-2.4-3.7c-1-1.1-2.2-1.9-3.6-2.5
		c-1.4-0.6-2.9-0.9-4.5-0.9c-1.7,0-3.2,0.3-4.6,0.9c-1.4,0.6-2.5,1.4-3.5,2.5c-1,1.1-1.7,2.3-2.3,3.7c-0.6,1.4-0.8,2.9-0.8,4.5v0.1
		c0,1.6,0.3,3.1,0.8,4.5c0.6,1.4,1.3,2.7,2.4,3.7c1,1.1,2.2,1.9,3.6,2.5C139.7,30.8,141.2,31.1,142.9,31.1z"/>
</g>
</svg>
